<svg xmlns="http://www.w3.org/2000/svg" xmlns:xlink="http://www.w3.org/1999/xlink" viewBox="0 0 105.65 25.38"><defs><clipPath id="clip-path" transform="translate(0 0)"><rect width="24.04" height="25" style="fill:none"/></clipPath></defs><title>Fichier 1</title><g id="Calque_2" data-name="Calque 2"><g id="Calque_1-2" data-name="Calque 1"><path d="M57.5,13.8v-.06a11.13,11.13,0,0,0-.89-4.48,10.49,10.49,0,0,0-2.47-3.65A11.24,11.24,0,0,0,50.4,3.14a12.18,12.18,0,0,0-4.77-.92,12.4,12.4,0,0,0-4.8.92,11.35,11.35,0,0,0-3.77,2.5,11.51,11.51,0,0,0-2.47,3.68,11.16,11.16,0,0,0-.89,4.48v.06a11.77,11.77,0,0,0,.86,4.52A11.7,11.7,0,0,0,37,22a12.77,12.77,0,0,0,13.32,2.47,11.62,11.62,0,0,0,6.27-6.18A11.38,11.38,0,0,0,57.5,13.8Zm-5.15.06a7.27,7.27,0,0,1-.51,2.72,6.65,6.65,0,0,1-1.38,2.21,6.12,6.12,0,0,1-2.11,1.51,6.77,6.77,0,0,1-2.72.54,6.85,6.85,0,0,1-2.75-.54,7.31,7.31,0,0,1-2.14-1.54,7.1,7.1,0,0,1-1.41-2.24,7.67,7.67,0,0,1-.48-2.72v-.06A7.24,7.24,0,0,1,40.7,8.81,6.67,6.67,0,0,1,42.82,7.3a6.85,6.85,0,0,1,2.75-.54,6.77,6.77,0,0,1,4.86,2.08,6.45,6.45,0,0,1,1.41,2.24,7.27,7.27,0,0,1,.51,2.72ZM71,24.3V20.39a4.92,4.92,0,0,1-2.4.61c-1,0-1.57-.55-1.57-1.66V12h4V7.85H67V3.46H62.16V7.85h-2V12h2v8.13a7.37,7.37,0,0,0,.36,2.49,4.28,4.28,0,0,0,1,1.57,3.56,3.56,0,0,0,1.57.83,7.72,7.72,0,0,0,2,.26A7.29,7.29,0,0,0,69.3,25,7.58,7.58,0,0,0,71,24.3Zm13.28,0V20.39a4.92,4.92,0,0,1-2.4.61c-1,0-1.57-.55-1.57-1.66V12h4V7.85h-4V3.46H75.44V7.85h-2V12h2v8.13a7.37,7.37,0,0,0,.36,2.49,4.28,4.28,0,0,0,1,1.57,3.56,3.56,0,0,0,1.57.83,7.72,7.72,0,0,0,2,.26A7.29,7.29,0,0,0,82.58,25,7.58,7.58,0,0,0,84.28,24.3Zm21.37-7.84v-.07A8.64,8.64,0,0,0,103,10.12a8.52,8.52,0,0,0-2.91-1.89,10.13,10.13,0,0,0-7.4,0,9.24,9.24,0,0,0-2.94,1.92,8.82,8.82,0,0,0-2,2.85,8.5,8.5,0,0,0-.71,3.46v.06A8.71,8.71,0,0,0,87.8,20a9.23,9.23,0,0,0,1.92,2.81,9.52,9.52,0,0,0,2.94,1.89,9.87,9.87,0,0,0,3.68.67,9.54,9.54,0,0,0,3.71-.7,9.29,9.29,0,0,0,3-1.92,8.91,8.91,0,0,0,2-2.82A8.66,8.66,0,0,0,105.65,16.46Zm-4.8.06a5,5,0,0,1-.32,1.82,4.16,4.16,0,0,1-2.27,2.5,4.62,4.62,0,0,1-1.85.35,4.45,4.45,0,0,1-1.86-.38,4.59,4.59,0,0,1-2.34-2.53,5.28,5.28,0,0,1-.32-1.82v-.07a5.46,5.46,0,0,1,.29-1.79,4.51,4.51,0,0,1,.9-1.5,4,4,0,0,1,1.37-1,4.59,4.59,0,0,1,1.89-.38,4.44,4.44,0,0,1,1.83.38,4.56,4.56,0,0,1,1.44,1.06,4.43,4.43,0,0,1,.92,1.5,4.87,4.87,0,0,1,.32,1.8Z" transform="translate(0 0)" style="fill:#fafafa"/><g style="clip-path:url(#clip-path)"><path d="M15.82,8.54,15.25,14a.88.88,0,0,0,1.24.89l1.57-.72a1.17,1.17,0,0,0,.55-1.58l-2.09-4.2A.37.37,0,0,0,15.82,8.54Z" transform="translate(0 0)" style="fill:#fafafa"/><path d="M15.21,25h7.62a1.21,1.21,0,0,0,1.08-1.75L21,17.44a2.79,2.79,0,0,0-3.65-1.3l-5,2.33a1,1,0,0,0-.47,1.3l2.19,4.51a1.3,1.3,0,0,0,1.16.72Z" transform="translate(0 0)" style="fill:#fafafa"/><path d="M13.8,13.6l.74-7.08a5.93,5.93,0,0,0-.6-3.29L12.66.65a1.16,1.16,0,0,0-2.08,0L.28,21.34a.53.53,0,0,0,.7.72l10.1-4.65A4.72,4.72,0,0,0,13.8,13.6Z" transform="translate(0 0)" style="fill:#fafafa"/><path d="M10.58,20.52A1.14,1.14,0,0,0,9.07,20L.25,24.15A.45.45,0,0,0,.44,25H11.12A1,1,0,0,0,12,23.52l-1.46-3Z" transform="translate(0 0)" style="fill:#fafafa"/></g></g></g></svg>